<?xml version="1.0" encoding="utf-8"?>
<!-- Generator: Adobe Illustrator 26.3.1, SVG Export Plug-In . SVG Version: 6.00 Build 0)  -->
<svg version="1.1" id="Layer_1" xmlns="http://www.w3.org/2000/svg" xmlns:xlink="http://www.w3.org/1999/xlink" x="0px" y="0px"
	 viewBox="0 0 96 96" style="enable-background:new 0 0 96 96;" xml:space="preserve">
<style type="text/css">
	.st0{fill:#251F20;}
	.st1{fill:#FFFFFF;}
	.st2{fill:#FF0000;}
</style>
<g id="sm_logo">
	<rect id="rectangle" class="st0" width="96" height="96"/>
	<g id="SM" transform="translate(26.000000, 69.000000)">
		<path id="sm-copy-2" class="st1" d="M16.1-6.7h7v-16.6c0-3.1,2.1-5.3,5.1-5.3S33-27,33-24v17.3h6.6v-16.9c0-2.9,2-5,5.1-5
			s4.8,1.6,4.8,4.9v17h7v-19.1c0-5.7-3.4-9.3-8.9-9.3c-3.8,0-7,2-8.3,5.1h-0.4c-1.1-3.2-3.7-5.1-7.6-5.1c-3.6,0-6.5,2-7.6,5.1h-0.5
			v-4.2h-7L16.1-6.7L16.1-6.7z"/>
		<path id="Path" class="st2" d="M-11.7-26.7c0,4.2,2.6,6.7,7.9,7.8l5,1.1c2.4,0.5,3.4,1.3,3.4,2.7c0,1.8-1.9,2.9-4.7,2.9
			s-4.6-1.1-5.2-2.9h-7C-11.9-9.9-7.6-7-0.4-7s12-3.5,12-9c0-4.1-2.4-6.3-7.7-7.4l-5.1-1.1c-2.5-0.6-3.7-1.4-3.7-2.7
			c0-1.7,1.9-2.9,4.5-2.9S4-29,4.4-27.2H11c-0.4-5.2-4.5-8.1-11.4-8.1S-11.8-31.9-11.7-26.7L-11.7-26.7z"/>
	</g>
</g>
</svg>
